HIERARCHY
ROOT Hips
{
	OFFSET -0.001795 -0.223333 0.028219
	CHANNELS 6 Xposition Yposition Zposition Zrotation Yrotation Xrotation 
	JOINT LeftUpLeg
	{
		OFFSET 0.069520 -0.091406 -0.006815
		CHANNELS 3 Zrotation Yrotation Xrotation
		JOINT LeftLeg
		{
			OFFSET 0.034277 -0.375199 -0.004496
			CHANNELS 3 Zrotation Yrotation Xrotation
			JOINT LeftFoot
			{
				OFFSET -0.013596 -0.397961 -0.043693
				CHANNELS 3 Zrotation Yrotation Xrotation
				JOINT LeftToe
				{
					OFFSET 0.026358 -0.055791 0.119288
					CHANNELS 3 Zrotation Yrotation Xrotation
					End Site
					{
						OFFSET 0.000000 0.000000 0.000000
					}
				}
			}
		}
	}
	JOINT RightUpLeg
	{
		OFFSET -0.067670 -0.090522 -0.004320
		CHANNELS 3 Zrotation Yrotation Xrotation
		JOINT RightLeg
		{
			OFFSET -0.038290 -0.382569 -0.008850
			CHANNELS 3 Zrotation Yrotation Xrotation
			JOINT RightFoot
			{
				OFFSET 0.015774 -0.398415 -0.042312
				CHANNELS 3 Zrotation Yrotation Xrotation
				JOINT RightToe
				{
					OFFSET -0.025372 -0.048144 0.123348
					CHANNELS 3 Zrotation Yrotation Xrotation
					End Site
					{
						OFFSET 0.000000 0.000000 0.000000
					}
				}
			}
		}
	}
	JOINT Spine
	{
		OFFSET -0.002533 0.108963 -0.026696
		CHANNELS 3 Zrotation Yrotation Xrotation
		JOINT Spine1
		{
			OFFSET 0.005487 0.135180 0.001092
			CHANNELS 3 Zrotation Yrotation Xrotation
			JOINT Spine2
			{
				OFFSET 0.001457 0.052922 0.025425
				CHANNELS 3 Zrotation Yrotation Xrotation
				JOINT Neck
				{
					OFFSET -0.002778 0.213870 -0.042857
					CHANNELS 3 Zrotation Yrotation Xrotation
					JOINT Head
					{
						OFFSET 0.005152 0.064970 0.051349
						CHANNELS 3 Zrotation Yrotation Xrotation
						End Site
						{
							OFFSET 0.000000 0.000000 0.000000
						}
					}
				}
				JOINT LeftShoulder
				{
					OFFSET 0.078845 0.121749 -0.034090
					CHANNELS 3 Zrotation Yrotation Xrotation
					JOINT LeftArm
					{
						OFFSET 0.090977 0.030469 -0.008868
						CHANNELS 3 Zrotation Yrotation Xrotation
						JOINT LeftForeArm
						{
							OFFSET 0.259612 -0.012772 -0.027456
							CHANNELS 3 Zrotation Yrotation Xrotation
							JOINT LeftHand
							{
								OFFSET 0.249234 0.008986 -0.001171
								CHANNELS 3 Zrotation Yrotation Xrotation
								End Site
								{
									OFFSET 0.000000 0.000000 0.000000
								}
							}
						}
					}
				}
				JOINT RightShoulder
				{
					OFFSET -0.081759 0.118833 -0.038615
					CHANNELS 3 Zrotation Yrotation Xrotation
					JOINT RightArm
					{
						OFFSET -0.096012 0.032551 -0.009143
						CHANNELS 3 Zrotation Yrotation Xrotation
						JOINT RightForeArm
						{
							OFFSET -0.253742 -0.013329 -0.021401
							CHANNELS 3 Zrotation Yrotation Xrotation
							JOINT RightHand
							{
								OFFSET -0.255298 0.007772 -0.005559
								CHANNELS 3 Zrotation Yrotation Xrotation
								End Site
								{
									OFFSET 0.000000 0.000000 0.000000
								}
							}
						}
					}
				}
			}
		}
	}
}
MOTION
Frames: 17
Frame Time: 0.050000
0.000000 0.893468 0.000000 2.137295 -34.820264 1.212063 -1.242684 1.371777 -38.098866 0.474231 1.717050 25.541430 -22.959316 -9.182488 48.485132 0.000000 0.000000 0.000000 -2.224556 0.241184 8.650225 1.896107 5.395776 36.029928 1.188058 -7.231711 14.315650 0.000000 0.000000 0.000000 -0.172752 0.273736 17.662997 -3.637105 1.062720 -32.458545 7.305939 30.682918 29.027835 14.014284 -4.576005 -28.969889 0.000000 0.000000 0.000000 -11.512411 -2.599326 -0.494596 -42.830901 3.442612 -8.062713 92.935448 -76.233924 -76.140844 0.000000 0.000000 0.000000 27.643421 6.881643 5.856896 52.374859 16.209234 -1.758844 9.330420 46.251317 7.814762 0.000000 0.000000 0.000000 
-0.026498 0.896283 0.043805 2.157859 -35.388485 1.183234 -2.410889 0.583033 -35.142759 2.308013 1.245780 26.031680 -22.244051 -8.866478 48.087189 0.000000 0.000000 0.000000 -2.628155 0.267391 5.508354 5.262503 5.497623 40.871963 0.133986 -7.303123 11.331420 0.000000 0.000000 0.000000 -1.120574 0.316421 15.830444 1.377597 -0.096988 -28.759994 3.203675 28.325505 26.517192 8.545742 -2.233767 -26.523951 0.000000 0.000000 0.000000 -11.903772 -3.125189 0.210946 -38.348801 -0.307188 -6.171802 87.786624 -63.540884 -57.932129 0.000000 0.000000 0.000000 27.049539 8.385985 5.480921 51.884672 9.684482 -4.032696 11.914954 46.637131 8.308936 0.000000 0.000000 0.000000 
-0.052422 0.906444 0.081007 0.491440 -36.581164 0.621930 -2.388555 0.168833 -30.925988 3.316908 1.350199 27.493319 -11.608944 -2.874263 44.643756 0.000000 0.000000 0.000000 -2.835030 0.302939 2.325916 11.654205 4.174133 45.066687 0.120331 -9.302988 15.800187 0.000000 0.000000 0.000000 1.397571 -0.044079 16.665152 0.758886 -0.020901 -29.296553 2.751729 27.605788 26.300127 7.773821 -1.889843 -27.563870 0.000000 0.000000 0.000000 -12.342562 -6.174794 1.944393 -30.172354 -8.239008 -3.320231 82.854891 -53.588494 -44.822536 0.000000 0.000000 0.000000 28.860169 5.131446 2.863293 51.099953 6.007520 -5.447171 14.186141 43.692393 8.422131 0.000000 0.000000 0.000000 
-0.074989 0.919396 0.111286 -0.155147 -40.052017 0.779525 -1.526306 0.273230 -27.059961 1.650260 2.293182 26.171811 -1.244554 4.756456 44.753567 0.000000 0.000000 0.000000 -2.015537 0.355611 -1.790272 12.677272 5.138458 47.575393 -2.645109 -12.857414 13.504541 0.000000 0.000000 0.000000 2.252249 -0.153556 15.743043 1.379439 -0.351721 -27.583281 0.838265 25.075742 24.178838 8.374939 -3.326323 -25.286634 0.000000 0.000000 0.000000 -5.307397 -6.403596 2.561484 -28.154399 -11.040858 -2.683298 79.966294 -42.729604 -31.956615 0.000000 0.000000 0.000000 30.423400 5.251930 0.835210 50.056564 2.367841 -6.072304 13.155510 40.668718 6.702475 0.000000 0.000000 0.000000 
-0.094486 0.933467 0.135267 -1.300093 -43.270335 1.975510 0.233452 0.438177 -22.263172 -1.410399 3.083179 21.837224 6.758047 10.293828 42.060009 0.000000 0.000000 0.000000 -2.546502 0.750554 -6.735558 13.874532 5.104877 46.273082 -3.695109 -13.662705 10.417640 0.000000 0.000000 0.000000 2.514518 -0.242998 14.251491 2.900135 -0.596455 -27.966537 0.710263 21.940093 24.119396 7.355143 -3.844543 -23.548836 0.000000 0.000000 0.000000 -1.278802 -6.495388 2.582961 -20.837808 -14.855902 -1.822101 65.891848 -32.725573 -16.939798 0.000000 0.000000 0.000000 30.488310 4.595355 -2.171763 48.101923 -2.859175 -6.986616 13.230222 39.619940 5.774905 0.000000 0.000000 0.000000 
-0.109775 0.944400 0.153224 -3.125470 -47.285319 3.162318 2.351229 0.769609 -18.262891 -3.062179 3.287368 18.077279 9.463165 12.357439 45.844667 0.000000 0.000000 0.000000 -2.213572 1.004765 -9.279655 11.505731 5.868119 42.813742 -4.475226 -14.536575 8.947702 0.000000 0.000000 0.000000 3.363800 -0.321594 14.034728 3.183094 -0.909044 -26.810937 0.764089 21.036478 21.681143 5.597257 -3.520054 -19.593717 0.000000 0.000000 0.000000 4.342729 -9.374640 2.829302 -14.459317 -15.611741 -1.334690 52.895422 -24.443470 -8.659296 0.000000 0.000000 0.000000 31.463322 4.268022 -4.169093 46.436120 -6.214071 -7.205851 10.080698 37.666345 4.011229 0.000000 0.000000 0.000000 
-0.121214 0.951982 0.165568 -4.154111 -47.504970 3.904755 3.027131 0.659424 -15.442647 -3.752017 2.911311 14.933305 11.338078 13.958447 47.289779 0.000000 0.000000 0.000000 -0.724400 1.012958 -9.824141 10.427645 5.785960 40.769490 -3.137561 -13.719852 11.330991 0.000000 0.000000 0.000000 3.489951 -0.379492 13.346917 4.430686 -0.980439 -27.321670 1.299876 18.615228 21.935266 3.847260 -2.968050 -16.964437 0.000000 0.000000 0.000000 7.852326 -12.296610 2.986851 -9.675619 -17.038120 -1.055375 41.660385 -17.000347 -3.806771 0.000000 0.000000 0.000000 29.708170 2.712943 -6.080540 46.416422 -7.788856 -7.494406 7.961424 35.280796 2.782897 0.000000 0.000000 0.000000 
-0.128852 0.957550 0.173175 -4.695971 -47.449826 3.779442 3.167359 0.515696 -13.386480 -3.918451 2.797382 13.980636 12.338679 14.777185 45.860602 0.000000 0.000000 0.000000 -0.510482 1.121601 -10.590463 8.927436 5.573431 38.265194 -2.966025 -13.692513 11.508461 0.000000 0.000000 0.000000 4.019494 -0.416530 13.921576 3.811370 -1.111711 -26.255324 2.028273 15.859296 20.218742 2.562078 -2.378766 -15.536758 0.000000 0.000000 0.000000 9.879149 -13.668364 2.891907 -6.506893 -18.796372 -0.843208 34.165723 -11.718071 -1.545525 0.000000 0.000000 0.000000 28.447646 3.198004 -6.579302 46.233202 -10.136155 -7.877649 6.342773 34.356168 1.946570 0.000000 0.000000 0.000000 
-0.134092 0.959325 0.176790 -4.893602 -46.947480 4.032805 3.569052 0.555778 -12.916573 -3.203040 2.391949 13.392491 8.580193 11.644625 47.248066 0.000000 0.000000 0.000000 -1.724940 1.189418 -10.819365 8.615005 4.626276 34.791931 -5.287240 -16.985633 11.213885 0.000000 0.000000 0.000000 4.311373 -0.450205 13.972165 4.740908 -1.028044 -27.268018 1.909951 15.205794 21.626740 2.638506 -2.549078 -15.689840 0.000000 0.000000 0.000000 10.291601 -14.318862 2.922834 -3.785989 -21.120292 -0.825705 32.597871 -9.900788 -1.101198 0.000000 0.000000 0.000000 28.261325 2.423690 -7.145775 46.001931 -10.709944 -8.163420 3.498814 32.093570 1.075061 0.000000 0.000000 0.000000 
-0.137255 0.960805 0.176665 -5.044628 -46.765693 4.065539 3.710573 0.537504 -12.222849 -2.652761 2.170960 13.271218 6.646603 9.569833 44.503089 0.000000 0.000000 0.000000 -1.814119 1.098252 -10.143525 7.271516 4.011116 31.143344 -2.642635 -13.943789 12.805432 0.000000 0.000000 0.000000 4.575862 -0.449200 14.843359 4.408052 -1.040966 -27.241960 2.477729 15.148980 20.930812 3.564268 -3.102519 -15.532870 0.000000 0.000000 0.000000 10.327778 -13.911634 2.861836 -3.560801 -24.235909 -0.795164 33.795361 -10.640030 -1.385451 0.000000 0.000000 0.000000 27.034782 1.532599 -7.146772 47.193494 -10.925086 -8.650641 1.924877 30.048685 0.648770 0.000000 0.000000 0.000000 
-0.138882 0.961169 0.173970 -4.754985 -46.143474 3.888899 3.106278 0.347997 -11.761124 -2.207692 1.948908 13.035274 7.824169 10.243336 40.575753 0.000000 0.000000 0.000000 -1.638066 0.951131 -9.075859 6.480319 3.285319 27.632110 -1.794356 -12.434721 12.259883 0.000000 0.000000 0.000000 5.015062 -0.496887 14.990056 3.373776 -0.843254 -27.631489 3.118633 14.247637 21.328420 4.228881 -3.640653 -15.534829 0.000000 0.000000 0.000000 9.248251 -13.758333 3.051409 -3.177186 -26.866016 -0.800179 36.062428 -12.713654 -2.066293 0.000000 0.000000 0.000000 26.705197 1.705204 -7.191413 48.519394 -11.287913 -9.094384 -0.733876 27.702658 -0.018202 0.000000 0.000000 0.000000 
-0.138474 0.961930 0.170042 -4.292073 -45.310754 3.696738 2.233372 0.118119 -11.469815 -2.006985 1.896815 13.343854 9.229617 11.600915 33.918056 0.000000 0.000000 0.000000 -1.736832 0.980394 -9.278148 6.008259 2.952426 25.996708 -1.449243 -12.164599 12.647225 0.000000 0.000000 0.000000 5.007253 -0.493738 15.413366 2.624932 -0.654559 -28.309716 3.081864 13.673914 21.637467 5.626792 -4.598518 -15.782207 0.000000 0.000000 0.000000 7.755640 -13.590371 3.358504 -3.251485 -29.477099 -0.821372 39.700552 -15.539505 -3.240941 0.000000 0.000000 0.000000 26.258918 1.986775 -6.845211 49.745880 -11.105869 -9.429493 -1.449406 25.610889 -0.121008 0.000000 0.000000 0.000000 
-0.135716 0.962376 0.165551 -4.001835 -44.549299 3.611919 1.373439 -0.102101 -10.778720 -2.238358 2.053601 13.951810 9.965792 13.574801 23.935799 0.000000 0.000000 0.000000 -1.581599 1.040031 -9.791391 6.005405 2.832316 25.666285 -0.882491 -11.177263 12.367704 0.000000 0.000000 0.000000 5.589111 -0.557798 15.640240 1.655235 -0.576299 -27.792608 2.884875 12.924115 21.048688 7.116035 -5.588333 -15.942509 0.000000 0.000000 0.000000 6.157897 -13.698602 3.806314 -5.480489 -30.750872 -0.557699 43.277741 -19.359964 -4.882466 0.000000 0.000000 0.000000 26.274091 2.204886 -6.757254 50.366131 -10.595820 -9.340481 -2.582113 23.879749 -0.312794 0.000000 0.000000 0.000000 
-0.130169 0.961910 0.160127 -3.125304 -43.038023 3.086230 0.535876 -0.304770 -9.982818 -2.540613 2.074483 13.921080 8.176937 12.713251 15.740610 0.000000 0.000000 0.000000 -2.047340 1.196443 -10.861953 6.704013 2.563209 25.590744 -0.824942 -11.000986 12.278823 0.000000 0.000000 0.000000 6.450424 -0.680354 15.400983 -0.072311 -0.291758 -27.757473 2.558910 10.883407 21.287015 8.147268 -6.249692 -17.690701 0.000000 0.000000 0.000000 3.819001 -13.811540 4.436186 -8.558341 -31.272878 -0.178267 49.047208 -23.239250 -7.049583 0.000000 0.000000 0.000000 26.543956 2.470988 -7.084289 50.634512 -10.097290 -9.086767 -2.754090 22.686499 -0.359201 0.000000 0.000000 0.000000 
-0.122429 0.960935 0.152944 -2.487897 -42.693635 2.846161 0.210686 -0.371295 -9.738014 -2.729158 2.175129 14.214633 6.011647 10.383252 9.983986 0.000000 0.000000 0.000000 -2.721564 1.437994 -12.460892 7.248104 2.525181 26.115288 -1.025255 -11.146052 11.926685 0.000000 0.000000 0.000000 6.528851 -0.685205 15.497063 -1.791032 -0.079074 -26.597724 2.484663 8.773538 19.947105 8.777633 -6.719576 -17.779001 0.000000 0.000000 0.000000 2.020162 -14.392770 5.188125 -13.110712 -30.525485 0.410629 55.008629 -27.797389 -9.780164 0.000000 0.000000 0.000000 26.011790 2.647727 -7.492959 50.848705 -10.442976 -9.012695 -1.746112 22.539791 -0.280647 0.000000 0.000000 0.000000 
-0.113328 0.960269 0.142777 -1.780556 -41.263745 2.629007 -0.479415 -0.505486 -9.809517 -2.541666 2.056170 14.356020 4.321748 8.392805 5.214963 0.000000 0.000000 0.000000 -2.603257 1.652568 -13.902732 6.886263 2.290604 25.035446 -0.619951 -10.437996 11.736231 0.000000 0.000000 0.000000 6.573438 -0.706087 15.685369 -3.214328 0.314807 -27.033278 2.367851 6.222756 20.740839 8.516748 -6.754644 -18.355003 0.000000 0.000000 0.000000 -1.277400 -13.533620 5.892614 -18.535689 -30.893850 1.071698 61.127972 -35.514737 -14.849531 0.000000 0.000000 0.000000 25.395913 2.417890 -8.061805 52.029938 -9.866125 -9.021992 -0.170157 23.697422 -0.118310 0.000000 0.000000 0.000000 
-0.103216 0.960127 0.128590 -1.634588 -40.897209 2.749104 -0.355364 -0.491651 -9.548926 -2.571079 2.032329 14.266781 2.661242 6.037986 0.590793 0.000000 0.000000 0.000000 -2.562368 1.930757 -15.556804 6.523441 2.115742 23.831624 -0.239766 -10.257673 12.287033 0.000000 0.000000 0.000000 6.375424 -0.673019 16.371809 -4.427732 0.500551 -25.734984 2.135233 4.827864 19.180048 9.555327 -7.357915 -18.014665 0.000000 0.000000 0.000000 -3.315948 -13.760472 6.689579 -25.014016 -30.916347 2.022865 62.539928 -42.564501 -18.826362 0.000000 0.000000 0.000000 25.034158 2.465652 -8.273252 52.457542 -8.809370 -8.434364 1.347866 23.927651 0.082796 0.000000 0.000000 0.000000 
